<svg width="16" height="16" viewBox="0 0 16 16" xmlns="http://www.w3.org/2000/svg" xmlns:xlink="http://www.w3.org/1999/xlink"><title>Mask</title><defs><path d="M12869 779a8 8 0 1 0 0-16 8 8 0 0 0 0 16zm.255-6.504c.386.385.576.784.57 1.196-.005.412-.19.8-.554 1.164a2.243 2.243 0 0 1-.586.432 1.447 1.447 0 0 1-1.246.048 1.9 1.9 0 0 1-.602-.422l-.35-.35.7-.7.35.35c.166.166.342.25.528.252.185.002.361-.08.527-.247.156-.155.231-.322.226-.5-.006-.18-.093-.353-.263-.523l-1.94-1.941-.383.382-.657-.658 1.4-1.4.657.658-.318.318 1.941 1.94zm2.689-1.586c.134-.134.225-.265.27-.392a.698.698 0 0 0 .038-.366.885.885 0 0 0-.14-.337 2.047 2.047 0 0 0-.253-.305l-.095-.095.7-.7.095.095c.442.442.667.898.674 1.368.007.47-.21.927-.653 1.369-.424.424-.889.63-1.394.62-.506-.01-1.006-.263-1.501-.758l-.827-.828a2.824 2.824 0 0 1-.544-.734 1.705 1.705 0 0 1-.064-1.485c.101-.239.257-.464.47-.676.219-.22.445-.382.678-.488a1.59 1.59 0 0 1 .703-.151c.235.005.467.063.695.175.228.111.448.273.66.485l.096.095-.7.7-.096-.095a1.602 1.602 0 0 0-.297-.233.982.982 0 0 0-.345-.133.78.78 0 0 0-.373.03.968.968 0 0 0-.385.251.914.914 0 0 0-.236.369.868.868 0 0 0-.032.392c.02.133.067.263.14.39.075.127.167.246.276.355l.934.934c.12.12.243.218.368.294.126.076.252.125.38.146a.746.746 0 0 0 .381-.037c.128-.046.253-.131.377-.255z" id="a"/></defs><use xlink:href="#a" transform="translate(-12861 -763)" fill-rule="evenodd"/></svg>