<?xml version="1.0" encoding="UTF-8"?>
<svg width="268px" height="227px" viewBox="0 0 268 227" version="1.1" xmlns="http://www.w3.org/2000/svg" xmlns:xlink="http://www.w3.org/1999/xlink">
    <!-- Generator: Sketch 41.2 (35397) - http://www.bohemiancoding.com/sketch -->
    <title>GitHub</title>
    <desc>Created with Sketch.</desc>
    <defs></defs>
    <g id="Page-1" stroke="none" stroke-width="1" fill="none" fill-rule="evenodd">
        <g id="Symbols" transform="translate(-1268.000000, -1095.000000)" fill="#FFFFFF">
            <path d="M1370.85714,1249.28571 C1370.85714,1253.57145 1370.18751,1257.96426 1368.84821,1262.46429 C1367.50892,1266.96431 1365.20537,1271.0357 1361.9375,1274.67857 C1358.66963,1278.32145 1354.78574,1280.14286 1350.28571,1280.14286 C1345.78569,1280.14286 1341.9018,1278.32145 1338.63393,1274.67857 C1335.36606,1271.0357 1333.06251,1266.96431 1331.72321,1262.46429 C1330.38392,1257.96426 1329.71429,1253.57145 1329.71429,1249.28571 C1329.71429,1244.99998 1330.38392,1240.60717 1331.72321,1236.10714 C1333.06251,1231.60712 1335.36606,1227.53573 1338.63393,1223.89286 C1341.9018,1220.24998 1345.78569,1218.42857 1350.28571,1218.42857 C1354.78574,1218.42857 1358.66963,1220.24998 1361.9375,1223.89286 C1365.20537,1227.53573 1367.50892,1231.60712 1368.84821,1236.10714 C1370.18751,1240.60717 1370.85714,1244.99998 1370.85714,1249.28571 Z M1473.71429,1249.28571 C1473.71429,1253.57145 1473.04465,1257.96426 1471.70536,1262.46429 C1470.36606,1266.96431 1468.06252,1271.0357 1464.79464,1274.67857 C1461.52677,1278.32145 1457.64288,1280.14286 1453.14286,1280.14286 C1448.64283,1280.14286 1444.75894,1278.32145 1441.49107,1274.67857 C1438.2232,1271.0357 1435.91965,1266.96431 1434.58036,1262.46429 C1433.24106,1257.96426 1432.57143,1253.57145 1432.57143,1249.28571 C1432.57143,1244.99998 1433.24106,1240.60717 1434.58036,1236.10714 C1435.91965,1231.60712 1438.2232,1227.53573 1441.49107,1223.89286 C1444.75894,1220.24998 1448.64283,1218.42857 1453.14286,1218.42857 C1457.64288,1218.42857 1461.52677,1220.24998 1464.79464,1223.89286 C1468.06252,1227.53573 1470.36606,1231.60712 1471.70536,1236.10714 C1473.04465,1240.60717 1473.71429,1244.99998 1473.71429,1249.28571 Z M1499.42857,1249.28571 C1499.42857,1236.42851 1495.73218,1225.50005 1488.33929,1216.5 C1480.94639,1207.49995 1470.92863,1203 1458.28571,1203 C1453.89284,1203 1443.44651,1204.12499 1426.94643,1206.375 C1419.33925,1207.55358 1410.92862,1208.14286 1401.71429,1208.14286 C1392.49995,1208.14286 1384.08932,1207.55358 1376.48214,1206.375 C1360.19635,1204.12499 1349.75002,1203 1345.14286,1203 C1332.49994,1203 1322.48218,1207.49995 1315.08929,1216.5 C1307.69639,1225.50005 1304,1236.42851 1304,1249.28571 C1304,1258.71433 1305.71427,1266.93746 1309.14286,1273.95536 C1312.57145,1280.97325 1316.91069,1286.49105 1322.16071,1290.50893 C1327.41074,1294.52681 1333.94639,1297.74106 1341.76786,1300.15179 C1349.58932,1302.56251 1357.08925,1304.14285 1364.26786,1304.89286 C1371.44646,1305.64286 1379.42853,1306.01786 1388.21429,1306.01786 L1415.21429,1306.01786 C1424.00004,1306.01786 1431.98211,1305.64286 1439.16071,1304.89286 C1446.33932,1304.14285 1453.83925,1302.56251 1461.66071,1300.15179 C1469.48218,1297.74106 1476.01783,1294.52681 1481.26786,1290.50893 C1486.51788,1286.49105 1490.85713,1280.97325 1494.28571,1273.95536 C1497.7143,1266.93746 1499.42857,1258.71433 1499.42857,1249.28571 Z M1535.42857,1221 C1535.42857,1243.17868 1532.16075,1260.91065 1525.625,1274.19643 C1521.55355,1282.44647 1515.90182,1289.5714 1508.66964,1295.57143 C1501.43746,1301.57146 1493.88397,1306.17856 1486.00893,1309.39286 C1478.13389,1312.60716 1469.02684,1315.15178 1458.6875,1317.02679 C1448.34816,1318.9018 1439.16075,1320.08035 1431.125,1320.5625 C1423.08925,1321.04465 1414.14291,1321.28571 1404.28571,1321.28571 C1395.92853,1321.28571 1388.32146,1321.125 1381.46429,1320.80357 C1374.60711,1320.48214 1366.7054,1319.81251 1357.75893,1318.79464 C1348.81246,1317.77678 1340.64289,1316.16965 1333.25,1313.97321 C1325.85711,1311.77677 1318.51789,1309.01787 1311.23214,1305.69643 C1303.94639,1302.37498 1297.46431,1298.03574 1291.78571,1292.67857 C1286.10711,1287.3214 1281.50002,1281.16075 1277.96429,1274.19643 C1271.3214,1261.01779 1268,1243.28583 1268,1221 C1268,1195.60702 1275.28564,1174.39294 1289.85714,1157.35714 C1286.96427,1148.57138 1285.51786,1139.46433 1285.51786,1130.03571 C1285.51786,1117.60708 1288.24997,1105.92863 1293.71429,1095 C1305.28577,1095 1315.46424,1097.11605 1324.25,1101.34821 C1333.03576,1105.58038 1343.16066,1112.19638 1354.625,1121.19643 C1370.37508,1117.44641 1386.92848,1115.57143 1404.28571,1115.57143 C1420.14294,1115.57143 1435.14279,1117.2857 1449.28571,1120.71429 C1460.53577,1111.92853 1470.55353,1105.44645 1479.33929,1101.26786 C1488.12504,1097.08926 1498.24994,1095 1509.71429,1095 C1515.1786,1105.92863 1517.91071,1117.60708 1517.91071,1130.03571 C1517.91071,1139.35719 1516.4643,1148.3571 1513.57143,1157.03571 C1528.14293,1174.17866 1535.42857,1195.49987 1535.42857,1221 Z" id="GitHub"></path>
        </g>
    </g>
</svg>