<svg width="268" height="227" viewBox="0 0 268 227" xmlns="http://www.w3.org/2000/svg"><path d="M102.857 154.286c0 4.285-.67 8.678-2.009 13.178-1.34 4.5-3.643 8.572-6.91 12.215-3.268 3.642-7.152 5.464-11.652 5.464-4.5 0-8.384-1.822-11.652-5.464-3.268-3.643-5.571-7.715-6.91-12.215-1.34-4.5-2.01-8.893-2.01-13.178 0-4.286.67-8.679 2.01-13.179 1.339-4.5 3.642-8.571 6.91-12.214 3.268-3.643 7.152-5.464 11.652-5.464 4.5 0 8.384 1.821 11.651 5.464 3.268 3.643 5.572 7.714 6.911 12.214 1.34 4.5 2.01 8.893 2.01 13.179zm102.857 0c0 4.285-.67 8.678-2.009 13.178s-3.642 8.572-6.91 12.215c-3.268 3.642-7.152 5.464-11.652 5.464-4.5 0-8.384-1.822-11.652-5.464-3.268-3.643-5.571-7.715-6.91-12.215-1.34-4.5-2.01-8.893-2.01-13.178 0-4.286.67-8.679 2.01-13.179 1.339-4.5 3.642-8.571 6.91-12.214 3.268-3.643 7.152-5.464 11.652-5.464 4.5 0 8.384 1.821 11.652 5.464 3.268 3.643 5.571 7.714 6.91 12.214 1.34 4.5 2.01 8.893 2.01 13.179zm25.715 0c0-12.857-3.697-23.786-11.09-32.786S202.93 108 190.286 108c-4.393 0-14.84 1.125-31.34 3.375-7.607 1.179-16.017 1.768-25.232 1.768-9.214 0-17.625-.59-25.232-1.768C92.196 109.125 81.75 108 77.142 108c-12.642 0-22.66 4.5-30.053 13.5C39.696 130.5 36 141.429 36 154.286c0 9.428 1.714 17.651 5.143 24.67 3.428 7.017 7.768 12.535 13.018 16.553 5.25 4.018 11.785 7.232 19.607 9.643 7.821 2.41 15.321 3.99 22.5 4.74 7.178.75 15.16 1.126 23.946 1.126h27c8.786 0 16.768-.375 23.947-1.125 7.178-.75 14.678-2.33 22.5-4.741 7.821-2.41 14.357-5.625 19.607-9.643 5.25-4.018 9.59-9.536 13.018-16.554 3.428-7.018 5.143-15.24 5.143-24.67zm36-28.286c0 22.179-3.268 39.91-9.804 53.196-4.071 8.25-9.723 15.375-16.955 21.375-7.233 6-14.786 10.608-22.661 13.822-7.875 3.214-16.982 5.759-27.321 7.634-10.34 1.875-19.527 3.053-27.563 3.536-8.036.482-16.982.723-26.84.723-8.356 0-15.964-.161-22.82-.482-6.858-.322-14.76-.991-23.706-2.01-8.947-1.017-17.116-2.624-24.509-4.82-7.393-2.197-14.732-4.956-22.018-8.278-7.286-3.321-13.768-7.66-19.446-13.017a66.784 66.784 0 0 1-13.822-18.483C3.321 166.018 0 148.286 0 126c0-25.393 7.286-46.607 21.857-63.643-2.893-8.786-4.34-17.893-4.34-27.321 0-12.429 2.733-24.107 8.197-35.036 11.572 0 21.75 2.116 30.536 6.348 8.786 4.232 18.91 10.848 30.375 19.848 15.75-3.75 32.303-5.625 49.66-5.625 15.858 0 30.858 1.715 45 5.143 11.25-8.785 21.269-15.268 30.054-19.446C220.125 2.089 230.25 0 241.714 0c5.465 10.929 8.197 22.607 8.197 35.036 0 9.321-1.447 18.321-4.34 27C260.143 79.179 267.43 100.5 267.43 126z" fill="#FFF" fill-rule="evenodd"/></svg>
