<svg width="247" height="247" viewBox="0 0 247 247" xmlns="http://www.w3.org/2000/svg"><path d="M164.571 123.429c0-11.358-4.017-21.054-12.053-29.09-8.036-8.035-17.732-12.053-29.09-12.053-11.357 0-21.053 4.018-29.089 12.053-8.035 8.036-12.053 17.732-12.053 29.09 0 11.357 4.018 21.053 12.053 29.089 8.036 8.036 17.732 12.053 29.09 12.053 11.357 0 21.053-4.017 29.089-12.053 8.036-8.036 12.053-17.732 12.053-29.09zm22.179 0c0 17.571-6.16 32.517-18.482 44.839-12.322 12.321-27.268 18.482-44.84 18.482-17.57 0-32.517-6.16-44.839-18.482-12.321-12.322-18.482-27.268-18.482-44.84 0-17.57 6.16-32.517 18.482-44.839 12.322-12.321 27.268-18.482 44.84-18.482 17.571 0 32.517 6.16 44.839 18.482 12.321 12.322 18.482 27.268 18.482 44.84zm17.357-65.893c0 4.071-1.446 7.553-4.34 10.446-2.892 2.893-6.374 4.34-10.446 4.34-4.071 0-7.553-1.447-10.446-4.34s-4.34-6.375-4.34-10.446c0-4.072 1.447-7.554 4.34-10.447 2.893-2.893 6.375-4.339 10.446-4.339 4.072 0 7.554 1.446 10.447 4.34 2.893 2.892 4.34 6.374 4.34 10.446zM123.43 22.179c-.75 0-4.849-.027-12.295-.08-7.447-.054-13.098-.054-16.955 0-3.858.053-9.027.213-15.51.481-6.482.268-12 .804-16.553 1.608-4.554.803-8.384 1.794-11.491 2.973a41.696 41.696 0 0 0-14.143 9.321 41.696 41.696 0 0 0-9.321 14.143c-1.179 3.107-2.17 6.937-2.974 11.491-.803 4.554-1.339 10.071-1.607 16.554-.267 6.482-.428 11.651-.482 15.509-.053 3.857-.053 9.508 0 16.955.054 7.446.08 11.545.08 12.295s-.026 4.848-.08 12.294c-.053 7.447-.053 13.098 0 16.956.054 3.857.215 9.026.482 15.508.268 6.483.804 12 1.608 16.554.803 4.554 1.794 8.384 2.973 11.491a41.696 41.696 0 0 0 9.321 14.143 41.696 41.696 0 0 0 14.143 9.321c3.107 1.179 6.937 2.17 11.491 2.974 4.554.803 10.071 1.339 16.554 1.607 6.482.268 11.651.428 15.509.482 3.857.054 9.508.054 16.955 0 7.446-.054 11.545-.08 12.295-.08s4.848.026 12.294.08c7.447.054 13.098.054 16.956 0 3.857-.054 9.026-.214 15.508-.482 6.483-.268 12-.804 16.554-1.607 4.554-.804 8.384-1.795 11.491-2.974a41.696 41.696 0 0 0 14.143-9.321 41.696 41.696 0 0 0 9.321-14.143c1.179-3.107 2.17-6.937 2.974-11.49.803-4.555 1.339-10.072 1.607-16.554.268-6.483.428-11.652.482-15.51.054-3.857.054-9.508 0-16.955-.054-7.446-.08-11.544-.08-12.294s.026-4.849.08-12.295c.054-7.447.054-13.098 0-16.955-.054-3.858-.214-9.027-.482-15.51-.268-6.482-.804-12-1.607-16.553-.804-4.554-1.795-8.384-2.974-11.491a41.696 41.696 0 0 0-9.321-14.143 41.696 41.696 0 0 0-14.143-9.321c-3.107-1.179-6.937-2.17-11.49-2.974-4.555-.803-10.072-1.339-16.554-1.607-6.483-.267-11.652-.428-15.51-.482-3.857-.053-9.508-.053-16.955 0-7.446.054-11.544.08-12.294.08zm123.428 101.25c0 24.535-.268 41.517-.803 50.946-1.072 22.286-7.715 39.536-19.929 51.75-12.214 12.214-29.464 18.857-51.75 19.929-9.429.535-26.41.803-50.946.803-24.536 0-41.518-.268-50.947-.803-22.286-1.072-39.536-7.715-51.75-19.929C8.518 213.911 1.875 196.661.804 174.375.268 164.946 0 147.965 0 123.429 0 98.893.268 81.91.804 72.482c1.071-22.286 7.714-39.536 19.928-51.75C32.946 8.518 50.196 1.875 72.482.804 81.911.268 98.892 0 123.43 0c24.535 0 41.517.268 50.946.804 22.286 1.071 39.536 7.714 51.75 19.928 12.214 12.214 18.857 29.464 19.929 51.75.535 9.429.803 26.41.803 50.947z" fill="#FFF" fill-rule="evenodd"/></svg>
