<?xml version="1.0" encoding="UTF-8"?>
<svg width="247px" height="247px" viewBox="0 0 247 247" version="1.1" xmlns="http://www.w3.org/2000/svg" xmlns:xlink="http://www.w3.org/1999/xlink">
    <!-- Generator: Sketch 41.2 (35397) - http://www.bohemiancoding.com/sketch -->
    <title>Instagram</title>
    <desc>Created with Sketch.</desc>
    <defs></defs>
    <g id="Page-1" stroke="none" stroke-width="1" fill="none" fill-rule="evenodd">
        <g id="Symbols" transform="translate(-1800.000000, -1085.000000)" fill="#FFFFFF">
            <path d="M1964.57143,1208.42857 C1964.57143,1197.07137 1960.55361,1187.37504 1952.51786,1179.33929 C1944.4821,1171.30353 1934.78577,1167.28571 1923.42857,1167.28571 C1912.07137,1167.28571 1902.37504,1171.30353 1894.33929,1179.33929 C1886.30353,1187.37504 1882.28571,1197.07137 1882.28571,1208.42857 C1882.28571,1219.78577 1886.30353,1229.4821 1894.33929,1237.51786 C1902.37504,1245.55361 1912.07137,1249.57143 1923.42857,1249.57143 C1934.78577,1249.57143 1944.4821,1245.55361 1952.51786,1237.51786 C1960.55361,1229.4821 1964.57143,1219.78577 1964.57143,1208.42857 Z M1986.75,1208.42857 C1986.75,1226.00009 1980.58935,1240.94637 1968.26786,1253.26786 C1955.94637,1265.58935 1941.00009,1271.75 1923.42857,1271.75 C1905.85705,1271.75 1890.91078,1265.58935 1878.58929,1253.26786 C1866.2678,1240.94637 1860.10714,1226.00009 1860.10714,1208.42857 C1860.10714,1190.85705 1866.2678,1175.91078 1878.58929,1163.58929 C1890.91078,1151.2678 1905.85705,1145.10714 1923.42857,1145.10714 C1941.00009,1145.10714 1955.94637,1151.2678 1968.26786,1163.58929 C1980.58935,1175.91078 1986.75,1190.85705 1986.75,1208.42857 Z M2004.10714,1142.53571 C2004.10714,1146.60716 2002.66073,1150.08927 1999.76786,1152.98214 C1996.87499,1155.87501 1993.39288,1157.32143 1989.32143,1157.32143 C1985.24998,1157.32143 1981.76787,1155.87501 1978.875,1152.98214 C1975.98213,1150.08927 1974.53571,1146.60716 1974.53571,1142.53571 C1974.53571,1138.46427 1975.98213,1134.98216 1978.875,1132.08929 C1981.76787,1129.19641 1985.24998,1127.75 1989.32143,1127.75 C1993.39288,1127.75 1996.87499,1129.19641 1999.76786,1132.08929 C2002.66073,1134.98216 2004.10714,1138.46427 2004.10714,1142.53571 Z M1923.42857,1107.17857 C1922.67857,1107.17857 1918.58039,1107.15179 1911.13393,1107.09821 C1903.68746,1107.04464 1898.03573,1107.04464 1894.17857,1107.09821 C1890.32141,1107.15179 1885.15182,1107.3125 1878.66964,1107.58036 C1872.18747,1107.84822 1866.66967,1108.38392 1862.11607,1109.1875 C1857.56248,1109.99108 1853.73216,1110.98214 1850.625,1112.16071 C1845.26783,1114.30358 1840.55359,1117.41069 1836.48214,1121.48214 C1832.41069,1125.55359 1829.30358,1130.26783 1827.16071,1135.625 C1825.98214,1138.73216 1824.99108,1142.56248 1824.1875,1147.11607 C1823.38392,1151.66967 1822.84822,1157.18747 1822.58036,1163.66964 C1822.3125,1170.15182 1822.15179,1175.32141 1822.09821,1179.17857 C1822.04464,1183.03573 1822.04464,1188.68746 1822.09821,1196.13393 C1822.15179,1203.58039 1822.17857,1207.67857 1822.17857,1208.42857 C1822.17857,1209.17858 1822.15179,1213.27675 1822.09821,1220.72321 C1822.04464,1228.16968 1822.04464,1233.82141 1822.09821,1237.67857 C1822.15179,1241.53573 1822.3125,1246.70532 1822.58036,1253.1875 C1822.84822,1259.66968 1823.38392,1265.18748 1824.1875,1269.74107 C1824.99108,1274.29467 1825.98214,1278.12498 1827.16071,1281.23214 C1829.30358,1286.58931 1832.41069,1291.30355 1836.48214,1295.375 C1840.55359,1299.44645 1845.26783,1302.55356 1850.625,1304.69643 C1853.73216,1305.87501 1857.56248,1306.86607 1862.11607,1307.66964 C1866.66967,1308.47322 1872.18747,1309.00893 1878.66964,1309.27679 C1885.15182,1309.54464 1890.32141,1309.70536 1894.17857,1309.75893 C1898.03573,1309.8125 1903.68746,1309.8125 1911.13393,1309.75893 C1918.58039,1309.70536 1922.67857,1309.67857 1923.42857,1309.67857 C1924.17858,1309.67857 1928.27675,1309.70536 1935.72321,1309.75893 C1943.16968,1309.8125 1948.82141,1309.8125 1952.67857,1309.75893 C1956.53573,1309.70536 1961.70532,1309.54464 1968.1875,1309.27679 C1974.66968,1309.00893 1980.18748,1308.47322 1984.74107,1307.66964 C1989.29467,1306.86607 1993.12498,1305.87501 1996.23214,1304.69643 C2001.58931,1302.55356 2006.30355,1299.44645 2010.375,1295.375 C2014.44645,1291.30355 2017.55356,1286.58931 2019.69643,1281.23214 C2020.87501,1278.12498 2021.86607,1274.29467 2022.66964,1269.74107 C2023.47322,1265.18748 2024.00893,1259.66968 2024.27679,1253.1875 C2024.54464,1246.70532 2024.70536,1241.53573 2024.75893,1237.67857 C2024.8125,1233.82141 2024.8125,1228.16968 2024.75893,1220.72321 C2024.70536,1213.27675 2024.67857,1209.17858 2024.67857,1208.42857 C2024.67857,1207.67857 2024.70536,1203.58039 2024.75893,1196.13393 C2024.8125,1188.68746 2024.8125,1183.03573 2024.75893,1179.17857 C2024.70536,1175.32141 2024.54464,1170.15182 2024.27679,1163.66964 C2024.00893,1157.18747 2023.47322,1151.66967 2022.66964,1147.11607 C2021.86607,1142.56248 2020.87501,1138.73216 2019.69643,1135.625 C2017.55356,1130.26783 2014.44645,1125.55359 2010.375,1121.48214 C2006.30355,1117.41069 2001.58931,1114.30358 1996.23214,1112.16071 C1993.12498,1110.98214 1989.29467,1109.99108 1984.74107,1109.1875 C1980.18748,1108.38392 1974.66968,1107.84822 1968.1875,1107.58036 C1961.70532,1107.3125 1956.53573,1107.15179 1952.67857,1107.09821 C1948.82141,1107.04464 1943.16968,1107.04464 1935.72321,1107.09821 C1928.27675,1107.15179 1924.17858,1107.17857 1923.42857,1107.17857 Z M2046.85714,1208.42857 C2046.85714,1232.96441 2046.58929,1249.94638 2046.05357,1259.375 C2044.98214,1281.66083 2038.33935,1298.91065 2026.125,1311.125 C2013.91065,1323.33935 1996.66083,1329.98214 1974.375,1331.05357 C1964.94638,1331.58929 1947.96441,1331.85714 1923.42857,1331.85714 C1898.89273,1331.85714 1881.91076,1331.58929 1872.48214,1331.05357 C1850.19632,1329.98214 1832.94649,1323.33935 1820.73214,1311.125 C1808.5178,1298.91065 1801.87501,1281.66083 1800.80357,1259.375 C1800.26785,1249.94638 1800,1232.96441 1800,1208.42857 C1800,1183.89273 1800.26785,1166.91076 1800.80357,1157.48214 C1801.87501,1135.19632 1808.5178,1117.94649 1820.73214,1105.73214 C1832.94649,1093.5178 1850.19632,1086.87501 1872.48214,1085.80357 C1881.91076,1085.26785 1898.89273,1085 1923.42857,1085 C1947.96441,1085 1964.94638,1085.26785 1974.375,1085.80357 C1996.66083,1086.87501 2013.91065,1093.5178 2026.125,1105.73214 C2038.33935,1117.94649 2044.98214,1135.19632 2046.05357,1157.48214 C2046.58929,1166.91076 2046.85714,1183.89273 2046.85714,1208.42857 Z" id="Instagram"></path>
        </g>
    </g>
</svg>