<svg width="247" height="236" viewBox="0 0 247 236" xmlns="http://www.w3.org/2000/svg"><path d="M56.09 76.66V235.93H3.053V76.66h53.035zm3.374-49.178c.107 7.822-2.598 14.357-8.116 19.607s-12.777 7.875-21.777 7.875h-.321c-8.786 0-15.857-2.625-21.214-7.875C2.679 41.84 0 35.304 0 27.482c0-7.928 2.759-14.49 8.277-19.687C13.795 2.598 21 0 29.893 0c8.893 0 16.018 2.598 21.375 7.795 5.357 5.196 8.09 11.759 8.196 19.687zm78.75 71.811c2.041-3.217 4.13-6.046 6.268-8.49 2.25-2.57 5.277-5.357 9.08-8.357 3.804-3 8.465-5.33 13.983-6.99 5.518-1.661 11.651-2.492 18.401-2.492 18.322 0 33.054 6.08 44.197 18.241s16.714 29.973 16.714 53.438v91.286h-52.875V150.75c0-11.25-2.17-20.062-6.509-26.438-4.34-6.375-11.116-9.562-20.33-9.562-6.75 0-12.402 1.848-16.956 5.545-4.553 3.696-7.955 8.276-10.205 13.74-1.178 3.215-1.768 7.554-1.768 13.019v88.875H85.34c.215-42.75.322-77.411.322-103.983 0-26.571-.054-42.428-.161-47.571l-.16-7.714h52.874v22.632z" fill="#FFF" fill-rule="evenodd"/></svg>
