<?xml version="1.0" encoding="UTF-8"?>
<svg width="247px" height="236px" viewBox="0 0 247 236" version="1.1" xmlns="http://www.w3.org/2000/svg" xmlns:xlink="http://www.w3.org/1999/xlink">
    <!-- Generator: Sketch 41.2 (35397) - http://www.bohemiancoding.com/sketch -->
    <title>LinkedIn</title>
    <desc>Created with Sketch.</desc>
    <defs></defs>
    <g id="Page-1" stroke="none" stroke-width="1" fill="none" fill-rule="evenodd">
        <g id="Symbols" transform="translate(-758.000000, -1090.000000)" fill="#FFFFFF">
            <path d="M814.089286,1166.66071 L814.089286,1325.92857 L761.053571,1325.92857 L761.053571,1166.66071 L814.089286,1166.66071 Z M817.464286,1117.48214 C817.571429,1125.30361 814.866099,1131.83926 809.348214,1137.08929 C803.83033,1142.33931 796.571474,1144.96429 787.571429,1144.96429 L787.25,1144.96429 C778.464242,1144.96429 771.392884,1142.33931 766.035714,1137.08929 C760.678545,1131.83926 758,1125.30361 758,1117.48214 C758,1109.55353 760.758901,1102.9911 766.276786,1097.79464 C771.79467,1092.59819 778.999956,1090 787.892857,1090 C796.785759,1090 803.910687,1092.59819 809.267857,1097.79464 C814.625027,1102.9911 817.357142,1109.55353 817.464286,1117.48214 Z M896.214286,1189.29313 C898.255225,1186.07643 900.344491,1183.2466 902.482143,1180.80357 C904.732154,1178.23213 907.75891,1175.44644 911.5625,1172.44643 C915.36609,1169.44641 920.026758,1167.11608 925.544643,1165.45536 C931.062528,1163.79463 937.196395,1162.96429 943.946429,1162.96429 C962.267949,1162.96429 976.999944,1169.04458 988.142857,1181.20536 C999.28577,1193.36613 1004.85714,1211.17845 1004.85714,1234.64286 L1004.85714,1325.92857 L951.982143,1325.92857 L951.982143,1240.75 C951.982143,1229.49994 949.812522,1220.68753 945.473214,1214.3125 C941.133907,1207.93747 934.357189,1204.75 925.142857,1204.75 C918.392823,1204.75 912.741094,1206.5982 908.1875,1210.29464 C903.633906,1213.99109 900.232154,1218.5714 897.982143,1224.03571 C896.803566,1227.25002 896.214286,1231.58926 896.214286,1237.05357 L896.214286,1325.92857 L843.339286,1325.92857 C843.553572,1283.17836 843.660714,1248.51799 843.660714,1221.94643 C843.660714,1195.37487 843.607143,1179.51788 843.5,1174.375 L843.339286,1166.66071 L896.214286,1166.66071 L896.214286,1189.29313 L896.214286,1189.29313 Z" id="LinkedIn"></path>
        </g>
    </g>
</svg>