<?xml version="1.0" encoding="UTF-8"?>
<svg width="254px" height="206px" viewBox="0 0 254 206" version="1.1" xmlns="http://www.w3.org/2000/svg" xmlns:xlink="http://www.w3.org/1999/xlink">
    <!-- Generator: Sketch 41.2 (35397) - http://www.bohemiancoding.com/sketch -->
    <title>Twitter</title>
    <desc>Created with Sketch.</desc>
    <defs></defs>
    <g id="Page-1" stroke="none" stroke-width="1" fill="none" fill-rule="evenodd">
        <g id="Symbols" transform="translate(-2317.000000, -1106.000000)" fill="#FFFFFF">
            <path d="M2570.28571,1130.42857 C2563.10711,1140.92862 2554.42862,1149.87496 2544.25,1157.26786 C2544.35714,1158.76786 2544.41071,1161.01784 2544.41071,1164.01786 C2544.41071,1177.9465 2542.37502,1191.84814 2538.30357,1205.72321 C2534.23212,1219.59828 2528.04468,1232.91065 2519.74107,1245.66071 C2511.43746,1258.41078 2501.55363,1269.68745 2490.08929,1279.49107 C2478.62494,1289.29469 2464.80365,1297.11604 2448.625,1302.95536 C2432.44635,1308.79467 2415.14295,1311.71429 2396.71429,1311.71429 C2367.67843,1311.71429 2341.10726,1303.94651 2317,1288.41071 C2320.75002,1288.83929 2324.92855,1289.05357 2329.53571,1289.05357 C2353.64298,1289.05357 2375.12491,1281.66079 2393.98214,1266.875 C2382.73209,1266.66071 2372.66076,1263.20539 2363.76786,1256.50893 C2354.87496,1249.81247 2348.76787,1241.26791 2345.44643,1230.875 C2348.98216,1231.41072 2352.24999,1231.67857 2355.25,1231.67857 C2359.85717,1231.67857 2364.41069,1231.08929 2368.91071,1229.91071 C2356.91065,1227.44642 2346.97325,1221.47326 2339.09821,1211.99107 C2331.22317,1202.50888 2327.28571,1191.50006 2327.28571,1178.96429 L2327.28571,1178.32143 C2334.57147,1182.39288 2342.39282,1184.58928 2350.75,1184.91071 C2343.67854,1180.19641 2338.05359,1174.03575 2333.875,1166.42857 C2329.69641,1158.82139 2327.60714,1150.57147 2327.60714,1141.67857 C2327.60714,1132.24995 2329.96426,1123.5179 2334.67857,1115.48214 C2347.64292,1131.44651 2363.41955,1144.22317 2382.00893,1153.8125 C2400.59831,1163.40183 2420.49989,1168.73214 2441.71429,1169.80357 C2440.85714,1165.73212 2440.42857,1161.76788 2440.42857,1157.91071 C2440.42857,1143.5535 2445.49102,1131.31255 2455.61607,1121.1875 C2465.74112,1111.06245 2477.98207,1106 2492.33929,1106 C2507.33936,1106 2519.98209,1111.46423 2530.26786,1122.39286 C2541.94649,1120.14285 2552.92852,1115.96432 2563.21429,1109.85714 C2559.24998,1122.17863 2551.64291,1131.71425 2540.39286,1138.46429 C2550.35719,1137.39285 2560.32138,1134.71431 2570.28571,1130.42857 Z" id="Twitter"></path>
        </g>
    </g>
</svg>