<svg width="254" height="206" viewBox="0 0 254 206" xmlns="http://www.w3.org/2000/svg"><path d="M253.286 24.429c-7.179 10.5-15.857 19.446-26.036 26.839.107 1.5.16 3.75.16 6.75 0 13.929-2.035 27.83-6.106 41.705-4.072 13.875-10.26 27.188-18.563 39.938-8.304 12.75-18.187 24.026-29.652 33.83-11.464 9.804-25.285 17.625-41.464 23.464-16.179 5.84-33.482 8.76-51.91 8.76-29.037 0-55.608-7.768-79.715-23.304 3.75.428 7.929.643 12.536.643 24.107 0 45.589-7.393 64.446-22.179-11.25-.214-21.321-3.67-30.214-10.366-8.893-6.697-15-15.241-18.322-25.634 3.536.536 6.804.804 9.804.804 4.607 0 9.16-.59 13.66-1.768-12-2.465-21.937-8.438-29.812-17.92-7.875-9.482-11.812-20.49-11.812-33.027v-.643c7.285 4.072 15.107 6.268 23.464 6.59-7.071-4.715-12.696-10.875-16.875-18.482-4.179-7.608-6.268-15.858-6.268-24.75 0-9.43 2.357-18.161 7.072-26.197 12.964 15.965 28.74 28.741 47.33 38.33 18.59 9.59 38.49 14.92 59.705 15.992-.857-4.072-1.285-8.036-1.285-11.893 0-14.358 5.062-26.598 15.187-36.724C148.741 5.063 160.982 0 175.34 0c15 0 27.643 5.464 37.929 16.393 11.678-2.25 22.66-6.429 32.946-12.536-3.964 12.322-11.571 21.857-22.821 28.607 9.964-1.071 19.928-3.75 29.893-8.035z" fill="#FFF" fill-rule="evenodd"/></svg>
