<svg width="128" height="128" viewBox="0 0 1000 1000" xmlns="http://www.w3.org/2000/svg"><g fill="none" fill-rule="evenodd"><circle fill="#0685E8" cx="500" cy="500" r="500"/><path d="M630.798 17c176.339 47.677 314.04 189.404 355.96 368.033L368.364 982.209C192.141 934.256 54.638 792.34 13 613.603z" fill="#333"/><path d="M517.023 779.271c27.967-27.967 42.155-57.768 42.562-89.4.407-31.634-14.188-62.249-43.784-91.846L366.73 448.956l24.438-24.438-50.504-50.504-107.526 107.525 50.505 50.505 29.325-29.325 149.07 149.07c13.032 13.033 19.753 26.405 20.16 40.118.407 13.712-5.363 26.541-17.31 38.489-12.762 12.762-26.27 19.075-40.526 18.939-14.255-.136-27.763-6.585-40.525-19.347l-26.882-26.88-53.762 53.762 26.881 26.881c14.934 14.934 30.343 25.728 46.228 32.38 15.884 6.653 31.904 9.64 48.06 8.96 16.156-.678 32.04-4.887 47.654-12.626 15.613-7.738 30.615-18.803 45.006-33.194zm254.15-254.151c33.942-33.941 50.641-68.969 50.098-105.082-.543-36.113-17.785-71.14-51.726-105.082l-7.332-7.33-53.762 53.762 7.33 7.331c7.332 7.331 13.781 15.138 19.347 23.42 5.567 8.281 9.164 16.902 10.794 25.863 1.629 8.96.678 18.328-2.851 28.103-3.53 9.775-10.454 19.822-20.772 30.14-9.504 9.503-19.143 16.02-28.918 19.55-9.775 3.53-19.55 4.48-29.325 2.85-9.775-1.628-19.483-5.362-29.122-11.2-9.64-5.838-19.075-13.373-28.307-22.605l-71.683-71.683c-8.418-8.418-15.478-17.514-21.18-27.289-5.702-9.775-9.3-19.754-10.793-29.936-1.493-10.182-.679-20.229 2.444-30.14 3.122-9.91 9.164-19.346 18.124-28.307 9.775-9.775 19.618-16.223 29.53-19.346 9.91-3.123 19.481-3.87 28.713-2.24 9.232 1.629 18.057 5.023 26.474 10.182 8.418 5.16 16.02 11.133 22.809 17.921l7.331 7.331 53.763-53.762-7.331-7.332c-16.292-16.291-33.195-28.714-50.708-37.267-17.514-8.553-35.3-13.033-53.356-13.44-18.057-.408-36.045 3.461-53.966 11.607-17.921 8.146-35.299 20.636-52.134 37.471-16.292 16.292-28.307 33.602-36.045 51.93-7.739 18.328-11.269 37.064-10.59 56.207.679 19.142 5.838 38.421 15.477 57.835 9.64 19.415 23.555 38.218 41.748 56.41l63.538 63.538c38.014 38.014 76.435 57.429 115.264 58.243 38.828.815 74.534-15.07 107.118-47.653z" fill="#FFF" fill-rule="nonzero"/></g></svg>