<svg xmlns="http://www.w3.org/2000/svg" style="display: none;">
  <symbol id="github-alt" viewBox="0 0 480 512">
    <title id="github-alt-title">GitHub</title>
    <path d="M186.1 328.7c0 20.9-10.9 55.1-36.7 55.1s-36.7-34.2-36.7-55.1 10.9-55.1 36.7-55.1 36.7 34.2 36.7 55.1zM480 278.2c0 31.9-3.2 65.7-17.5 95-37.9 76.6-142.1 74.8-216.7 74.8-75.8 0-186.2 2.7-225.6-74.8-14.6-29-20.2-63.1-20.2-95 0-41.9 13.9-81.5 41.5-113.6-5.2-15.8-7.7-32.4-7.7-48.8 0-21.5 4.9-32.3 14.6-51.8 45.3 0 74.3 9 108.8 36 29-6.9 58.8-10 88.7-10 27 0 54.2 2.9 80.4 9.2 34-26.7 63-35.2 107.8-35.2 9.8 19.5 14.6 30.3 14.6 51.8 0 16.4-2.6 32.7-7.7 48.2 27.5 32.4 39 72.3 39 114.2zm-64.3 50.5c0-43.9-26.7-82.6-73.5-82.6-18.9 0-37 3.4-56 6-14.9 2.3-29.8 3.2-45.1 3.2-15.2 0-30.1-.9-45.1-3.2-18.7-2.6-37-6-56-6-46.8 0-73.5 38.7-73.5 82.6 0 87.8 80.4 101.3 150.4 101.3h48.2c70.3 0 150.6-13.4 150.6-101.3zm-82.6-55.1c-25.8 0-36.7 34.2-36.7 55.1s10.9 55.1 36.7 55.1 36.7-34.2 36.7-55.1-10.9-55.1-36.7-55.1z"></path>
  </symbol>
  <symbol id="twitter" viewBox="0 0 512 512">
    <title id="twitter-title">Twitter</title>
    <path d="M443.8 159.7c.3 4.2.3 8.4.3 12.6 0 128.1-97.5 275.7-275.7 275.7-54.9 0-105.9-15.9-148.8-43.5 7.8.9 15.3 1.2 23.4 1.2 45.3 0 87-15.3 120.3-41.4-42.6-.9-78.3-28.8-90.6-67.2 6 .9 12 1.5 18.3 1.5 8.7 0 17.4-1.2 25.5-3.3-44.4-9-77.7-48-77.7-95.1V199c12.9 7.2 27.9 11.7 43.8 12.3-26.1-17.4-43.2-47.1-43.2-80.7 0-18 4.8-34.5 13.2-48.9 47.7 58.8 119.4 97.2 199.8 101.4-1.5-7.2-2.4-14.7-2.4-22.2 0-53.4 43.2-96.9 96.9-96.9 27.9 0 53.1 11.7 70.8 30.6 21.9-4.2 42.9-12.3 61.5-23.4-7.2 22.5-22.5 41.4-42.6 53.4 19.5-2.1 38.4-7.5 55.8-15-13.2 19.2-29.7 36.3-48.6 50.1z"></path>
  </symbol>
  <symbol id="linkedin-in" viewBox="0 0 448 512">
    <title id="linkedin-in-title">LinkedIn</title>
    <path d="M100.3 480H7.4V180.9h92.9V480zM53.8 140.1C24.1 140.1 0 115.5 0 85.8 0 56.1 24.1 32 53.8 32c29.7 0 53.8 24.1 53.8 53.8 0 29.7-24.1 54.3-53.8 54.3zM448 480h-92.7V334.4c0-34.7-.7-79.2-48.3-79.2-48.3 0-55.7 37.7-55.7 76.7V480h-92.8V180.9h89.1v40.8h1.3c12.4-23.5 42.7-48.3 87.9-48.3 94 0 111.3 61.9 111.3 142.3V480z"></path>
  </symbol>
  <symbol id="instagram" viewBox="0 0 448 512">
    <title id="instagram-title">Instagram</title>
    <path d="M224.1 141c-63.6 0-114.9 51.3-114.9 114.9s51.3 114.9 114.9 114.9S339 319.5 339 255.9 287.7 141 224.1 141zm0 189.6c-41.1 0-74.7-33.5-74.7-74.7s33.5-74.7 74.7-74.7 74.7 33.5 74.7 74.7-33.6 74.7-74.7 74.7zm146.4-194.3c0 14.9-12 26.8-26.8 26.8-14.9 0-26.8-12-26.8-26.8s12-26.8 26.8-26.8 26.8 12 26.8 26.8zm76.1 27.2c-1.7-35.9-9.9-67.7-36.2-93.9-26.2-26.2-58-34.4-93.9-36.2-37-2.1-147.9-2.1-184.9 0-35.8 1.7-67.6 9.9-93.9 36.1s-34.4 58-36.2 93.9c-2.1 37-2.1 147.9 0 184.9 1.7 35.9 9.9 67.7 36.2 93.9s58 34.4 93.9 36.2c37 2.1 147.9 2.1 184.9 0 35.9-1.7 67.7-9.9 93.9-36.2 26.2-26.2 34.4-58 36.2-93.9 2.1-37 2.1-147.8 0-184.8zM398.8 388c-7.8 19.6-22.9 34.7-42.6 42.6-29.5 11.7-99.5 9-132.1 9s-102.7 2.6-132.1-9c-19.6-7.8-34.7-22.9-42.6-42.6-11.7-29.5-9-99.5-9-132.1s-2.6-102.7 9-132.1c7.8-19.6 22.9-34.7 42.6-42.6 29.5-11.7 99.5-9 132.1-9s102.7-2.6 132.1 9c19.6 7.8 34.7 22.9 42.6 42.6 11.7 29.5 9 99.5 9 132.1s2.7 102.7-9 132.1z"></path>
  </symbol>
  <symbol id="heart-emoji">
    <title id="heart-emoji-title">Heart Emoji</title>
    <defs><clipPath id="a"><path d="M0 38h38V0H0v38z"/></clipPath></defs><g clip-path="url(#a)" transform="matrix(1.25 0 0 -1.25 0 47.5)"><path d="M36.885 25.166c0 5.45-4.418 9.868-9.867 9.868-3.308 0-6.227-1.632-8.018-4.128-1.79 2.496-4.71 4.129-8.017 4.129-5.45 0-9.868-4.418-9.868-9.868 0-.773.098-1.52.266-2.242C2.75 14.413 12.216 5.431 19 2.965c6.783 2.466 16.249 11.448 17.617 19.96.17.721.268 1.47.268 2.241" fill="#be1931"/></g>
  </symbol>
  <symbol id="jc-logo">
    <title id="jc-logo-title">JC Logo</title>
    <g fill="none" fill-rule="evenodd"><circle cx="1024" cy="1024" r="1024" fill="#0784E8"/><path fill="#333" d="M759.077 2013.63C406.71 1919.4 129.232 1641.92 35 1289.555L1289.554 35c352.367 94.232 629.845 371.71 724.077 724.077L759.077 2013.631z"/><path fill="#FFF" d="M1050.335 1188.376c49.328 49.328 73.652 100.352 72.973 153.074-.679 52.722-24.324 102.389-70.937 149.002-23.985 23.985-48.988 42.426-75.01 55.324-26.021 12.897-52.495 19.912-79.422 21.043-26.927 1.132-53.627-3.846-80.101-14.934-26.474-11.087-52.156-29.076-77.046-53.966l-44.803-44.803 89.605-89.604 44.802 44.802c21.27 21.27 43.784 32.018 67.543 32.244 23.759.226 46.273-10.295 67.543-31.565 19.912-19.912 29.529-41.295 28.85-64.149-.679-22.854-11.88-45.141-33.602-66.864l-248.449-248.449-48.875 48.875-84.174-84.174L758.44 815.023l84.174 84.174-40.73 40.73 248.45 248.449zm344.163-202.968c17.197-17.197 28.736-33.941 34.62-50.233 5.883-16.292 7.467-31.905 4.751-46.839-2.715-14.934-8.711-29.302-17.988-43.105-9.278-13.803-20.026-26.814-32.244-39.032l-12.22-12.22 89.605-89.604 12.22 12.219c56.568 56.569 85.304 114.947 86.21 175.136.905 60.19-26.927 118.568-83.496 175.136-54.306 54.306-113.815 80.78-178.53 79.423-64.715-1.358-128.75-33.715-192.107-97.072L999.423 943.321c-30.32-30.321-53.514-61.66-69.58-94.017-16.065-32.358-24.663-64.488-25.795-96.393-1.131-31.905 4.752-63.13 17.65-93.678 12.897-30.547 32.923-59.396 60.076-86.55 28.058-28.058 57.02-48.875 86.889-62.451 29.868-13.577 59.85-20.025 89.944-19.346 30.094.678 59.736 8.145 88.926 22.4 29.19 14.256 57.36 34.96 84.513 62.113l12.219 12.219-89.605 89.604-12.219-12.219c-11.313-11.313-23.985-21.27-38.014-29.868-14.029-8.598-28.736-14.255-44.123-16.97-15.387-2.716-31.339-1.471-47.857 3.733-16.518 5.205-32.923 15.952-49.215 32.244-14.934 14.934-25.003 30.66-30.207 47.178-5.205 16.519-6.562 33.263-4.073 50.233 2.489 16.971 8.485 33.602 17.989 49.894 9.503 16.292 21.27 31.452 35.298 45.48l119.473 119.474c15.387 15.386 31.113 27.944 47.178 37.674 16.066 9.73 32.244 15.953 48.536 18.668s32.583 1.131 48.875-4.752 32.357-16.744 48.197-32.583z"/></g>
  </symbol>
</svg>
